<svg width="297" height="50" viewBox="0 0 297 50" fill="none" xmlns="http://www.w3.org/2000/svg">
<path d="M42.8125 47H34.3125V25.75C34.3125 25.1667 34.1979 24.6146 33.9688 24.0938C33.7604 23.5729 33.4583 23.1146 33.0625 22.7188C32.6667 22.3229 32.2083 22.0208 31.6875 21.8125C31.1667 21.5833 30.6146 21.4688 30.0312 21.4688C29.4479 21.4688 28.8958 21.5833 28.375 21.8125C27.875 22.0208 27.4271 22.3229 27.0312 22.7188C26.6562 23.1146 26.3542 23.5729 26.125 24.0938C25.9167 24.6146 25.8125 25.1667 25.8125 25.75V47H17.2812V25.75C17.2812 25.1667 17.1667 24.6146 16.9375 24.0938C16.7292 23.5729 16.4271 23.1146 16.0312 22.7188C15.6354 22.3229 15.1771 22.0208 14.6562 21.8125C14.1354 21.5833 13.5833 21.4688 13 21.4688C12.4167 21.4688 11.8646 21.5833 11.3438 21.8125C10.8438 22.0208 10.3958 22.3229 10 22.7188C9.625 23.1146 9.32292 23.5729 9.09375 24.0938C8.88542 24.6146 8.78125 25.1667 8.78125 25.75V47H0.25V13.5312H2.3125L4.625 16.0938C5.8125 15.0938 7.11458 14.3229 8.53125 13.7812C9.96875 13.2188 11.4583 12.9375 13 12.9375C14.5625 12.9375 16.0833 13.2292 17.5625 13.8125C19.0625 14.3958 20.375 15.4062 21.5 16.8438C22.0208 16.1354 22.6146 15.5312 23.2812 15.0312C23.9479 14.5312 24.6458 14.125 25.375 13.8125C26.125 13.5 26.8958 13.2812 27.6875 13.1562C28.4792 13.0104 29.2604 12.9375 30.0312 12.9375C31.8021 12.9375 33.4583 13.2708 35 13.9375C36.5625 14.6042 37.9167 15.5208 39.0625 16.6875C40.2292 17.8333 41.1458 19.1875 41.8125 20.75C42.4792 22.3125 42.8125 23.9792 42.8125 25.75V47ZM82.3125 29.9688C82.3125 32.5938 81.8646 34.9896 80.9688 37.1562C80.0729 39.3229 78.8542 41.1875 77.3125 42.75C75.7708 44.2917 73.9583 45.4896 71.875 46.3438C69.8125 47.1979 67.5938 47.625 65.2188 47.625C62.8646 47.625 60.6458 47.1875 58.5625 46.3125C56.5 45.4375 54.6875 44.2188 53.125 42.6562C51.5833 41.0938 50.3646 39.2396 49.4688 37.0938C48.5729 34.9271 48.125 32.5521 48.125 29.9688V0.21875H56.6875V15.8438C57.1458 15.2604 57.6979 14.7396 58.3438 14.2812C59.0104 13.8229 59.7188 13.4479 60.4688 13.1562C61.2396 12.8646 62.0312 12.6458 62.8438 12.5C63.6562 12.3333 64.4479 12.25 65.2188 12.25C67.5938 12.25 69.8125 12.6979 71.875 13.5938C73.9583 14.4688 75.7708 15.6979 77.3125 17.2812C78.8542 18.8646 80.0729 20.7396 80.9688 22.9062C81.8646 25.0521 82.3125 27.4062 82.3125 29.9688ZM73.7188 29.9688C73.7188 28.6771 73.4896 27.4792 73.0312 26.375C72.5938 25.25 71.9896 24.2812 71.2188 23.4688C70.4479 22.6562 69.5417 22.0208 68.5 21.5625C67.4792 21.1042 66.3854 20.875 65.2188 20.875C64.0521 20.875 62.9479 21.1354 61.9062 21.6562C60.8854 22.1562 59.9896 22.8333 59.2188 23.6875C58.4479 24.5208 57.8438 25.4896 57.4062 26.5938C56.9688 27.6771 56.75 28.8021 56.75 29.9688C56.75 31.2604 56.9688 32.4583 57.4062 33.5625C57.8438 34.6667 58.4479 35.625 59.2188 36.4375C59.9896 37.25 60.8854 37.8958 61.9062 38.375C62.9479 38.8333 64.0521 39.0625 65.2188 39.0625C66.3854 39.0625 67.4792 38.8333 68.5 38.375C69.5417 37.8958 70.4479 37.25 71.2188 36.4375C71.9896 35.625 72.5938 34.6667 73.0312 33.5625C73.4896 32.4583 73.7188 31.2604 73.7188 29.9688ZM100.375 38.8125C100.708 38.9167 101.042 38.9896 101.375 39.0312C101.708 39.0521 102.042 39.0625 102.375 39.0625C103.208 39.0625 104.01 38.9479 104.781 38.7188C105.552 38.4896 106.271 38.1667 106.938 37.75C107.625 37.3125 108.229 36.7917 108.75 36.1875C109.292 35.5625 109.729 34.875 110.062 34.125L116.312 40.4062C115.521 41.5312 114.604 42.5417 113.562 43.4375C112.542 44.3333 111.427 45.0938 110.219 45.7188C109.031 46.3438 107.771 46.8125 106.438 47.125C105.125 47.4583 103.771 47.625 102.375 47.625C100.021 47.625 97.8021 47.1875 95.7188 46.3125C93.6562 45.4375 91.8438 44.2188 90.2812 42.6562C88.7396 41.0938 87.5208 39.2396 86.625 37.0938C85.7292 34.9271 85.2812 32.5521 85.2812 29.9688C85.2812 27.3229 85.7292 24.9062 86.625 22.7188C87.5208 20.5312 88.7396 18.6667 90.2812 17.125C91.8438 15.5833 93.6562 14.3854 95.7188 13.5312C97.8021 12.6771 100.021 12.25 102.375 12.25C103.771 12.25 105.135 12.4167 106.469 12.75C107.802 13.0833 109.062 13.5625 110.25 14.1875C111.458 14.8125 112.583 15.5833 113.625 16.5C114.667 17.3958 115.583 18.4062 116.375 19.5312L100.375 38.8125ZM104.75 21.2188C104.354 21.0729 103.958 20.9792 103.562 20.9375C103.188 20.8958 102.792 20.875 102.375 20.875C101.208 20.875 100.104 21.0938 99.0625 21.5312C98.0417 21.9479 97.1458 22.5521 96.375 23.3438C95.625 24.1354 95.0312 25.0938 94.5938 26.2188C94.1562 27.3229 93.9375 28.5729 93.9375 29.9688C93.9375 30.2812 93.9479 30.6354 93.9688 31.0312C94.0104 31.4271 94.0625 31.8333 94.125 32.25C94.2083 32.6458 94.3021 33.0312 94.4062 33.4062C94.5104 33.7812 94.6458 34.1146 94.8125 34.4062L104.75 21.2188Z" fill="#00959E"/>
<path d="M153.031 47H150.969L147.656 42.4062C146.844 43.1354 145.979 43.8229 145.062 44.4688C144.167 45.0938 143.219 45.6458 142.219 46.125C141.219 46.5833 140.188 46.9479 139.125 47.2188C138.083 47.4896 137.021 47.625 135.938 47.625C133.583 47.625 131.365 47.1875 129.281 46.3125C127.219 45.4167 125.406 44.1875 123.844 42.625C122.302 41.0417 121.083 39.1771 120.188 37.0312C119.292 34.8646 118.844 32.5104 118.844 29.9688C118.844 27.4479 119.292 25.1042 120.188 22.9375C121.083 20.7708 122.302 18.8958 123.844 17.3125C125.406 15.7292 127.219 14.4896 129.281 13.5938C131.365 12.6979 133.583 12.25 135.938 12.25C136.688 12.25 137.458 12.3125 138.25 12.4375C139.062 12.5625 139.844 12.7708 140.594 13.0625C141.365 13.3333 142.083 13.6979 142.75 14.1562C143.417 14.6146 143.979 15.1771 144.438 15.8438V0.21875H153.031V47ZM144.438 29.9688C144.438 28.8021 144.208 27.6771 143.75 26.5938C143.312 25.4896 142.708 24.5208 141.938 23.6875C141.167 22.8333 140.26 22.1562 139.219 21.6562C138.198 21.1354 137.104 20.875 135.938 20.875C134.771 20.875 133.667 21.0833 132.625 21.5C131.604 21.9167 130.708 22.5208 129.938 23.3125C129.188 24.0833 128.594 25.0312 128.156 26.1562C127.719 27.2812 127.5 28.5521 127.5 29.9688C127.5 31.1979 127.719 32.3646 128.156 33.4688C128.594 34.5729 129.188 35.5417 129.938 36.375C130.708 37.2083 131.604 37.8646 132.625 38.3438C133.667 38.8229 134.771 39.0625 135.938 39.0625C137.104 39.0625 138.198 38.8125 139.219 38.3125C140.26 37.7917 141.167 37.1146 141.938 36.2812C142.708 35.4271 143.312 34.4583 143.75 33.375C144.208 32.2708 144.438 31.1354 144.438 29.9688ZM191.906 29.9688C191.906 32.4688 191.458 34.8021 190.562 36.9688C189.667 39.1146 188.448 40.9792 186.906 42.5625C185.365 44.125 183.552 45.3646 181.469 46.2812C179.406 47.1771 177.188 47.625 174.812 47.625C172.458 47.625 170.24 47.1771 168.156 46.2812C166.094 45.3646 164.281 44.125 162.719 42.5625C161.177 40.9792 159.958 39.1146 159.062 36.9688C158.167 34.8021 157.719 32.4688 157.719 29.9688C157.719 27.4271 158.167 25.0729 159.062 22.9062C159.958 20.7396 161.177 18.875 162.719 17.3125C164.281 15.7292 166.094 14.4896 168.156 13.5938C170.24 12.6979 172.458 12.25 174.812 12.25C177.188 12.25 179.406 12.6771 181.469 13.5312C183.552 14.3646 185.365 15.5625 186.906 17.125C188.448 18.6667 189.667 20.5312 190.562 22.7188C191.458 24.8854 191.906 27.3021 191.906 29.9688ZM183.312 29.9688C183.312 28.5938 183.083 27.3542 182.625 26.25C182.188 25.125 181.583 24.1667 180.812 23.375C180.042 22.5625 179.135 21.9479 178.094 21.5312C177.073 21.0938 175.979 20.875 174.812 20.875C173.646 20.875 172.542 21.0938 171.5 21.5312C170.479 21.9479 169.583 22.5625 168.812 23.375C168.062 24.1667 167.469 25.125 167.031 26.25C166.594 27.3542 166.375 28.5938 166.375 29.9688C166.375 31.2604 166.594 32.4583 167.031 33.5625C167.469 34.6667 168.062 35.625 168.812 36.4375C169.583 37.25 170.479 37.8958 171.5 38.375C172.542 38.8333 173.646 39.0625 174.812 39.0625C175.979 39.0625 177.073 38.8438 178.094 38.4062C179.135 37.9688 180.042 37.3542 180.812 36.5625C181.583 35.7708 182.188 34.8125 182.625 33.6875C183.083 32.5625 183.312 31.3229 183.312 29.9688ZM230.125 29.9688C230.125 32.5938 229.677 34.9896 228.781 37.1562C227.885 39.3229 226.667 41.1875 225.125 42.75C223.583 44.2917 221.771 45.4896 219.688 46.3438C217.625 47.1979 215.406 47.625 213.031 47.625C210.677 47.625 208.458 47.1875 206.375 46.3125C204.312 45.4375 202.5 44.2188 200.938 42.6562C199.396 41.0938 198.177 39.2396 197.281 37.0938C196.385 34.9271 195.938 32.5521 195.938 29.9688V0.21875H204.5V15.8438C204.958 15.2604 205.51 14.7396 206.156 14.2812C206.823 13.8229 207.531 13.4479 208.281 13.1562C209.052 12.8646 209.844 12.6458 210.656 12.5C211.469 12.3333 212.26 12.25 213.031 12.25C215.406 12.25 217.625 12.6979 219.688 13.5938C221.771 14.4688 223.583 15.6979 225.125 17.2812C226.667 18.8646 227.885 20.7396 228.781 22.9062C229.677 25.0521 230.125 27.4062 230.125 29.9688ZM221.531 29.9688C221.531 28.6771 221.302 27.4792 220.844 26.375C220.406 25.25 219.802 24.2812 219.031 23.4688C218.26 22.6562 217.354 22.0208 216.312 21.5625C215.292 21.1042 214.198 20.875 213.031 20.875C211.865 20.875 210.76 21.1354 209.719 21.6562C208.698 22.1562 207.802 22.8333 207.031 23.6875C206.26 24.5208 205.656 25.4896 205.219 26.5938C204.781 27.6771 204.562 28.8021 204.562 29.9688C204.562 31.2604 204.781 32.4583 205.219 33.5625C205.656 34.6667 206.26 35.625 207.031 36.4375C207.802 37.25 208.698 37.8958 209.719 38.375C210.76 38.8333 211.865 39.0625 213.031 39.0625C214.198 39.0625 215.292 38.8333 216.312 38.375C217.354 37.8958 218.26 37.25 219.031 36.4375C219.802 35.625 220.406 34.6667 220.844 33.5625C221.302 32.4583 221.531 31.2604 221.531 29.9688ZM248.188 38.8125C248.521 38.9167 248.854 38.9896 249.188 39.0312C249.521 39.0521 249.854 39.0625 250.188 39.0625C251.021 39.0625 251.823 38.9479 252.594 38.7188C253.365 38.4896 254.083 38.1667 254.75 37.75C255.438 37.3125 256.042 36.7917 256.562 36.1875C257.104 35.5625 257.542 34.875 257.875 34.125L264.125 40.4062C263.333 41.5312 262.417 42.5417 261.375 43.4375C260.354 44.3333 259.24 45.0938 258.031 45.7188C256.844 46.3438 255.583 46.8125 254.25 47.125C252.938 47.4583 251.583 47.625 250.188 47.625C247.833 47.625 245.615 47.1875 243.531 46.3125C241.469 45.4375 239.656 44.2188 238.094 42.6562C236.552 41.0938 235.333 39.2396 234.438 37.0938C233.542 34.9271 233.094 32.5521 233.094 29.9688C233.094 27.3229 233.542 24.9062 234.438 22.7188C235.333 20.5312 236.552 18.6667 238.094 17.125C239.656 15.5833 241.469 14.3854 243.531 13.5312C245.615 12.6771 247.833 12.25 250.188 12.25C251.583 12.25 252.948 12.4167 254.281 12.75C255.615 13.0833 256.875 13.5625 258.062 14.1875C259.271 14.8125 260.396 15.5833 261.438 16.5C262.479 17.3958 263.396 18.4062 264.188 19.5312L248.188 38.8125ZM252.562 21.2188C252.167 21.0729 251.771 20.9792 251.375 20.9375C251 20.8958 250.604 20.875 250.188 20.875C249.021 20.875 247.917 21.0938 246.875 21.5312C245.854 21.9479 244.958 22.5521 244.188 23.3438C243.438 24.1354 242.844 25.0938 242.406 26.2188C241.969 27.3229 241.75 28.5729 241.75 29.9688C241.75 30.2812 241.76 30.6354 241.781 31.0312C241.823 31.4271 241.875 31.8333 241.938 32.25C242.021 32.6458 242.115 33.0312 242.219 33.4062C242.323 33.7812 242.458 34.1146 242.625 34.4062L252.562 21.2188ZM296.938 43.8125C296.938 44.5625 296.802 45.2708 296.531 45.9375C296.26 46.5833 295.885 47.1458 295.406 47.625C294.927 48.1042 294.365 48.4792 293.719 48.75C293.073 49.0417 292.375 49.1875 291.625 49.1875C290.896 49.1875 290.198 49.0417 289.531 48.75C288.885 48.4792 288.312 48.1042 287.812 47.625C287.333 47.1458 286.948 46.5833 286.656 45.9375C286.385 45.2708 286.25 44.5625 286.25 43.8125C286.25 43.0833 286.385 42.3958 286.656 41.75C286.948 41.1042 287.333 40.5417 287.812 40.0625C288.312 39.5833 288.885 39.2083 289.531 38.9375C290.198 38.6458 290.896 38.5 291.625 38.5C292.375 38.5 293.073 38.6458 293.719 38.9375C294.365 39.2083 294.927 39.5833 295.406 40.0625C295.885 40.5417 296.26 41.1042 296.531 41.75C296.802 42.3958 296.938 43.0833 296.938 43.8125Z" fill="black"/>
</svg>
